<svg id="outputsvg" xmlns="http://www.w3.org/2000/svg" viewBox="0 0 1200 1907"><defs><style>.cls-1{fill:#ed4337;}</style></defs><g id="l6PaZIxrFXMUbFDUTZoyvE9"><path id="pn4exRBrn" class="cls-1" d="M162,1972.6c0-1.7,5.1-13.9,6.1-14.6.4-.3,2.1-3.9,3.8-8s3.5-7.7,4-8,2-3.6,3.6-7.5a59.86,59.86,0,0,1,3.6-7.5c.4-.3,2-3.4,3.5-7s3.2-6.7,3.6-7,2.1-3.9,3.8-8,3.4-7.7,3.8-8,2-3.4,3.6-7,3.1-6.7,3.5-7a52.83,52.83,0,0,0,3.6-7.5c1.6-3.8,3.2-7.2,3.6-7.5s2.2-3.9,4-8,3.5-7.7,3.9-8,2-3.4,3.4-6.9,3-6.7,3.4-7a50.4,50.4,0,0,0,3.6-7.1c1.5-3.6,3.1-6.7,3.5-7s2.2-4.1,4-8.5,3.7-8.2,4.1-8.5,2-3.4,3.5-7,3-6.7,3.4-7,1.9-3.4,3.5-7,3.1-6.7,3.5-7,2.2-4.1,4.1-8.5,3.6-8.2,4-8.5,2-3.4,3.5-7,3.1-6.7,3.5-7,2-3.4,3.4-6.9,3-6.7,3.4-7a66.7,66.7,0,0,0,4.2-8.6c1.9-4.4,3.7-8.2,4.1-8.5s1.9-3.4,3.4-7,3.1-6.7,3.5-7,2-3.4,3.5-7,3-6.7,3.4-7,2.2-4.1,4.1-8.5a66.7,66.7,0,0,1,4.2-8.6c.4-.3,2-3.4,3.4-7s3-6.6,3.4-6.9,2-3.4,3.5-7,3.1-6.7,3.5-7,2-3.4,3.5-7,3-6.7,3.4-7,2.2-4.1,4.1-8.5a66.7,66.7,0,0,1,4.2-8.6c.4-.3,2-3.4,3.4-7s3-6.6,3.4-6.9,2-3.4,3.5-7,3.1-6.7,3.5-7,2.2-4.1,4-8.5,3.7-8.2,4.1-8.5,2-3.4,3.5-7,3.1-6.7,3.5-7,1.9-3.4,3.4-7,3.1-6.7,3.5-7,2.3-4.1,4.1-8.5,3.6-8.2,4-8.5,2-3.4,3.5-7a50.4,50.4,0,0,1,3.6-7.1c.4-.3,2-3.4,3.4-7s3-6.6,3.4-6.9,2.2-3.9,3.9-8,3.5-7.7,3.9-8,2.1-3.6,3.7-7.5,3.2-7.2,3.6-7.5,2-3.4,3.5-7,3.1-6.7,3.5-7,2.1-3.9,3.8-8,3.5-7.7,3.9-8,2-3.4,3.6-7,3.1-6.7,3.5-7a52.83,52.83,0,0,0,3.6-7.5c1.6-3.8,3.2-7.2,3.6-7.5s2.2-3.9,4-8,3.4-7.7,3.8-8,1.9-3.4,3.5-7,3.1-6.7,3.5-7,2-3.6,3.6-7.5a59.86,59.86,0,0,1,3.6-7.5c.4-.3,2-3.4,3.5-7s3.2-6.7,3.6-7,2.1-3.9,3.8-8,3.4-7.7,3.8-8,2-3.4,3.6-7,3.1-6.7,3.5-7a52.83,52.83,0,0,0,3.6-7.5c1.6-3.8,3.2-7.2,3.6-7.5s2.2-3.9,4-8,3.4-7.7,3.8-8,1.9-3.4,3.5-7,3.1-6.7,3.5-7,2-3.6,3.6-7.5,3.3-7.2,3.7-7.5,2.1-3.9,3.9-8,3.5-7.7,3.9-8,2-3.4,3.4-6.9,3-6.7,3.4-7a50.4,50.4,0,0,0,3.6-7.1c1.5-3.6,3.1-6.7,3.5-7s2.2-4.2,4.1-8.7,3.7-8.3,4-8.3,2-3.1,3.5-7,3.1-7,3.5-7,1.8-2.7,3-6.1,2.8-6.6,3.4-7.2,2.7-4.8,4.6-9.2,3.7-8.2,4.1-8.5,1.9-3.4,3.4-7,3.1-6.7,3.5-7,2-3.4,3.5-7,3-6.7,3.4-7,2.2-4.1,4.1-8.5a66.7,66.7,0,0,1,4.2-8.6c.4-.3,2-3.4,3.4-7s3-6.6,3.4-6.9,2-3.4,3.5-7,3.1-6.7,3.5-7,2.2-4.1,4-8.5,3.7-8.2,4.1-8.5,2-3.4,3.5-7,3.1-6.7,3.5-7,1.9-3.4,3.4-7,3.1-6.7,3.5-7,2-3.4,3.5-7,3-6.7,3.4-7,2.2-4.1,4.1-8.5,3.9-8.5,4.6-9.2,2.1-3.9,3.4-7.2,2.6-6.1,3-6.1,2-3.1,3.5-7,3.1-7,3.5-7,2.2-3.7,4-8.2,3.7-8.5,4.1-8.8,2-3.4,3.5-7a50.4,50.4,0,0,1,3.6-7.1c.4-.3,2-3.4,3.4-7s3-6.6,3.4-6.9,2.2-3.9,3.9-8,3.5-7.7,3.9-8,2.1-3.6,3.7-7.5,3.2-7.2,3.6-7.5,2-3.4,3.5-7,3.1-6.7,3.5-7,2.1-3.9,3.8-8,3.5-7.7,3.9-8a10,10,0,0,0,1.9-3.2L706,861H492v371H400V861H216v369H124V861H0V436H123V67h94V436H400V67h92V436H846c304.7,0,354,.2,354,1.4a2.2,2.2,0,0,1-.8,1.8c-.5.2-2.1,3.5-3.6,7.3s-3.1,7.2-3.5,7.5-2.1,3.9-3.7,8-3.1,7.7-3.5,8-2,3.7-3.5,7.5-3.1,7.2-3.5,7.5-2,3.7-3.4,7.5-3,7.2-3.4,7.5-2.2,4.3-4.1,9-3.7,8.7-4.1,9-2,3.7-3.4,7.5-3,7.2-3.4,7.5-2,3.7-3.5,7.5-3.1,7.2-3.5,7.5-2.2,4.3-4,9-3.6,8.7-4,9-2,3.7-3.5,7.5-3.1,7.2-3.5,7.5-2,3.9-3.6,8-3.2,7.7-3.6,8-2.2,4.1-3.9,8.5-3.5,8.2-3.9,8.5-2,3.9-3.6,8-3.2,7.7-3.6,8-2,3.7-3.5,7.5-3.1,7.2-3.5,7.5-2.2,4.3-3.9,9-3.6,8.7-4.1,9-2,3.7-3.5,7.5-3.1,7.2-3.5,7.5-1.9,3.6-3.4,7.5-2.9,7.2-3.4,7.5-2.2,4.3-4.1,9a87,87,0,0,1-4,9c-.4.3-1.9,3.7-3.4,7.5s-3.1,7.2-3.5,7.5-2,3.7-3.5,7.5-3.1,7.2-3.5,7.5-2.2,4.4-4,9.3-3.7,8.7-4,8.7-2,3.5-3.6,7.8-3.2,7.9-3.6,8.2-2,3.7-3.5,7.5-3.1,7.2-3.5,7.5-2,3.7-3.5,7.5-3,7.2-3.4,7.5a87,87,0,0,0-4,9c-1.9,4.7-3.7,8.7-4.1,9s-2,3.7-3.4,7.5-3,7.2-3.4,7.5-2,3.7-3.5,7.5-3.1,7.2-3.5,7.5-2.3,4.3-4.1,9-3.5,8.7-3.9,9-2,3.7-3.5,7.5-3.1,7.2-3.5,7.5-2,3.9-3.6,8-3.2,7.7-3.6,8-2.2,4.1-3.9,8.5-3.5,8.2-3.9,8.5-2,3.9-3.6,8-3.2,7.7-3.6,8-2,3.7-3.5,7.5-3.1,7.2-3.5,7.5-2.2,4.3-3.9,9-3.6,8.7-4.1,9-2,3.7-3.5,7.5-3.1,7.2-3.5,7.5-1.9,3.6-3.4,7.5-2.9,7.2-3.4,7.5-2.2,4.3-4.1,9a87,87,0,0,1-4,9c-.4.3-1.9,3.7-3.4,7.5s-3.1,7.2-3.5,7.5-2,3.7-3.5,7.5-3.1,7.2-3.5,7.5-2.2,4.4-4,9.3-3.7,8.7-4,8.7-2,3.5-3.6,7.8-3.2,7.9-3.6,8.2-2,3.7-3.5,7.5-3.1,7.1-3.5,7.3-2.1,4.2-4,9-3.6,8.9-4,9.2-2,3.7-3.5,7.5-3.1,7.2-3.5,7.5-2,3.7-3.4,7.5-3,7.2-3.4,7.5-2,3.7-3.5,7.5-3.1,7.2-3.5,7.5-2.3,4.3-4.1,9-3.5,8.7-3.9,9-2,3.7-3.5,7.5-3.1,7.2-3.5,7.5-2,3.9-3.6,8-3.2,7.7-3.6,8-2.2,4.1-3.9,8.5-3.5,8.2-3.9,8.5-2,3.9-3.5,8-3.3,7.7-3.7,8-2,3.7-3.5,7.5-3.1,7.2-3.5,7.5-2.2,4.3-3.9,9-3.6,8.7-4.1,9-2,3.7-3.5,7.5-3.1,7.2-3.5,7.5-1.9,3.6-3.4,7.5-2.9,7.2-3.4,7.5-2.2,4.3-4.1,9a87,87,0,0,1-4,9c-.4.3-1.9,3.7-3.4,7.5s-3.1,7.2-3.5,7.5-2,3.7-3.5,7.5-3.1,7.2-3.5,7.5-2.2,4.4-4,9.3-3.7,8.7-4,8.7-2,3.5-3.6,7.8-3.2,7.9-3.6,8.2-2,3.7-3.5,7.5-3.1,7.1-3.5,7.3-2.1,4.2-4,9-3.6,8.9-4,9.2-2,3.7-3.5,7.5-3.1,7.2-3.5,7.5-2,3.7-3.4,7.5-3,7.2-3.4,7.5-2,3.7-3.5,7.5-3.1,7.2-3.5,7.5-2.3,4.3-4.1,9-3.5,8.7-3.9,9-2,3.7-3.5,7.5-3.1,7.2-3.5,7.5-2,3.9-3.6,8-3.2,7.7-3.6,8-2.2,4.1-3.9,8.5-3.5,8.2-3.9,8.5-2,3.9-3.6,8-3.2,7.7-3.6,8-2,3.7-3.5,7.5-3.1,7.2-3.5,7.5-2.2,4.3-3.9,9-3.6,8.7-4.1,9-2,3.7-3.5,7.5-3.1,7.2-3.5,7.5-1.9,3.6-3.4,7.5-2.9,7.2-3.4,7.5-2.2,4.3-4.1,9a87,87,0,0,1-4,9c-.4.3-1.9,3.7-3.4,7.5s-3.1,7.2-3.5,7.5-2,3.7-3.5,7.5-3.1,7.2-3.5,7.5-2.2,4.4-4,9.3-3.7,8.7-4,8.7-2,3.5-3.6,7.8-3.2,7.9-3.6,8.2-2,3.7-3.5,7.5-3.1,7.1-3.5,7.3-2.1,4.2-4,9-3.6,8.9-4,9.2-2,3.7-3.5,7.5-3.1,7.2-3.5,7.5-2,3.7-3.4,7.5-3,7.2-3.4,7.5-2.2,4.3-4.1,9-3.7,8.7-4.1,9-2,3.7-3.4,7.5-3,7.2-3.4,7.5-2,3.7-3.5,7.5-3.1,7.2-3.5,7.5-2,3.9-3.6,8-3.2,7.7-3.6,8-2.2,4.1-3.9,8.5-3.5,8.2-3.9,8.5-2,3.9-3.6,8-3.2,7.7-3.6,8-2,3.7-3.5,7.5-3.1,7.2-3.5,7.5-2.2,4.4-4,9-3.6,8.7-4,9-2,3.7-3.5,7.5-3.1,7.2-3.5,7.5-1.9,3.6-3.4,7.5-2.9,7.2-3.4,7.5-2.2,4.3-4.1,9-3.7,8.7-4.1,9-1.9,3.6-3.4,7.5-2.9,7.2-3.4,7.5-2,3.7-3.5,7.5-3.1,7.2-3.5,7.5-1.8,3.3-3,6.8l-2.3,6.2H330.9C184.9,1974,162,1973.8,162,1972.6Z" transform="translate(0 -67)"/></g></svg>