<svg class="img-fluid" id="outputsvg" xmlns="http://www.w3.org/2000/svg" style="transform: none; transform-origin: 50% 50%; cursor: move;" width="1200" height="2040" viewBox="0 0 12000 20400">
    <g id="l6PaZIxrFXMUbFDUTZoyvE9" fill="#212529" style="transform: none;">
        <g>
            <path id="pn4exRBrn" d="M1620 19726 c0 -17 51 -139 61 -146 4 -3 21 -39 38 -80 18 -41 35 -77 40 -80 4 -3 20 -36 36 -75 16 -38 33 -72 36 -75 4 -3 20 -34 35 -70 16 -36 32 -67 36 -70 4 -3 21 -39 38 -80 17 -41 34 -77 38 -80 4 -3 20 -34 36 -70 15 -36 31 -67 35 -70 3 -3 20 -36 36 -75 16 -38 32 -72 36 -75 5 -3 22 -39 40 -80 17 -41 35 -77 39 -80 4 -3 20 -34 34 -69 14 -36 30 -67 34 -70 4 -4 20 -35 36 -71 15 -36 31 -67 35 -70 4 -3 22 -41 40 -85 18 -44 37 -82 41 -85 4 -3 20 -34 35 -70 15 -36 30 -67 34 -70 4 -3 19 -34 35 -70 15 -36 31 -67 35 -70 4 -3 22 -41 41 -85 18 -44 36 -82 40 -85 4 -3 20 -34 35 -70 15 -36 31 -67 35 -70 4 -3 20 -34 34 -69 14 -36 30 -67 34 -70 4 -4 23 -42 42 -86 19 -44 37 -82 41 -85 4 -3 19 -34 34 -70 15 -36 31 -67 35 -70 4 -3 20 -34 35 -70 15 -36 30 -67 34 -70 4 -3 22 -41 41 -85 19 -44 38 -82 42 -86 4 -3 20 -34 34 -70 14 -35 30 -66 34 -69 4 -3 20 -34 35 -70 15 -36 31 -67 35 -70 4 -3 20 -34 35 -70 15 -36 30 -67 34 -70 4 -3 22 -41 41 -85 19 -44 38 -82 42 -86 4 -3 20 -34 34 -70 14 -35 30 -66 34 -69 4 -3 20 -34 35 -70 15 -36 31 -67 35 -70 4 -3 22 -41 40 -85 19 -44 37 -82 41 -85 4 -3 20 -34 35 -70 16 -36 31 -67 35 -70 4 -3 19 -34 34 -70 15 -36 31 -67 35 -70 4 -3 23 -41 41 -85 18 -44 36 -82 40 -85 4 -3 20 -34 35 -70 16 -36 32 -67 36 -71 4 -3 20 -34 34 -70 14 -35 30 -66 34 -69 4 -3 22 -39 39 -80 18 -41 35 -77 39 -80 4 -3 21 -36 37 -75 16 -38 32 -72 36 -75 4 -3 20 -34 35 -70 16 -36 31 -67 35 -70 4 -3 21 -39 38 -80 18 -41 35 -77 39 -80 5 -3 20 -34 36 -70 15 -36 31 -67 35 -70 3 -3 20 -36 36 -75 16 -38 32 -72 36 -75 5 -3 22 -39 40 -80 17 -41 34 -77 38 -80 4 -3 19 -34 35 -70 15 -36 31 -67 35 -70 4 -3 20 -36 36 -75 16 -38 33 -72 36 -75 4 -3 20 -34 35 -70 16 -36 32 -67 36 -70 4 -3 21 -39 38 -80 17 -41 34 -77 38 -80 4 -3 20 -34 36 -70 15 -36 31 -67 35 -70 3 -3 20 -36 36 -75 16 -38 32 -72 36 -75 5 -3 22 -39 40 -80 17 -41 34 -77 38 -80 4 -3 19 -34 35 -70 15 -36 31 -67 35 -70 4 -3 20 -36 36 -75 16 -38 33 -72 37 -75 4 -3 21 -39 39 -80 17 -41 35 -77 39 -80 4 -3 20 -34 34 -69 14 -36 30 -67 34 -70 4 -4 20 -35 36 -71 15 -36 31 -67 35 -70 4 -3 22 -42 41 -87 18 -46 37 -83 40 -83 4 0 20 -31 35 -70 15 -38 31 -70 35 -70 4 0 18 -27 30 -61 13 -33 28 -66 34 -72 7 -7 27 -48 46 -92 19 -44 37 -82 41 -85 4 -3 19 -34 34 -70 15 -36 31 -67 35 -70 4 -3 20 -34 35 -70 15 -36 30 -67 34 -70 4 -3 22 -41 41 -85 19 -44 38 -82 42 -86 4 -3 20 -34 34 -70 14 -35 30 -66 34 -69 4 -3 20 -34 35 -70 15 -36 31 -67 35 -70 4 -3 22 -41 40 -85 19 -44 37 -82 41 -85 4 -3 20 -34 35 -70 16 -36 31 -67 35 -70 4 -3 19 -34 34 -70 15 -36 31 -67 35 -70 4 -3 20 -34 35 -70 15 -36 30 -67 34 -70 4 -3 22 -41 41 -85 19 -44 39 -85 46 -92 6 -6 21 -39 34 -72 12 -34 26 -61 30 -61 4 0 20 -31 35 -70 15 -38 31 -70 35 -70 3 0 22 -37 40 -82 19 -46 37 -85 41 -88 4 -3 20 -34 35 -70 16 -36 32 -67 36 -71 4 -3 20 -34 34 -70 14 -35 30 -66 34 -69 4 -3 22 -39 39 -80 18 -41 35 -77 39 -80 4 -3 21 -36 37 -75 16 -38 32 -72 36 -75 4 -3 20 -34 35 -70 16 -36 31 -67 35 -70 4 -3 21 -39 38 -80 18 -41 35 -77 39 -80 4 -3 13 -17 19 -32 l13 -28 -1070 0 -1070 0 0 1855 0 1855 -460 0 -460 0 0 -1855 0 -1855 -920 0 -920 0 0 1845 0 1845 -460 0 -460 0 0 -1845 0 -1845 -620 0 -620 0 0 -2125 0 -2125 615 0 615 0 0 -1845 0 -1845 470 0 470 0 0 1845 0 1845 915 0 915 0 0 -1845 0 -1845 460 0 460 0 0 1845 0 1845 3540 0 c3047 0 3540 2 3540 14 0 8 -4 16 -8 18 -5 2 -21 35 -36 73 -15 39 -31 72 -35 75 -4 3 -21 39 -37 80 -15 41 -31 77 -35 80 -4 3 -20 37 -35 75 -15 39 -31 72 -35 75 -5 3 -20 37 -34 75 -15 39 -30 72 -34 75 -4 3 -22 43 -41 90 -19 47 -37 87 -41 90 -5 3 -20 37 -34 75 -15 39 -30 72 -34 75 -4 3 -20 37 -35 75 -15 39 -31 72 -35 75 -4 3 -22 43 -40 90 -18 46 -36 87 -40 90 -4 3 -20 37 -35 75 -15 39 -31 72 -35 75 -4 3 -20 39 -36 80 -16 41 -32 77 -36 80 -4 3 -22 41 -39 85 -17 44 -35 82 -39 85 -4 3 -20 39 -36 80 -16 41 -32 77 -36 80 -4 3 -20 37 -35 75 -15 39 -31 72 -35 75 -4 3 -22 43 -39 90 -18 47 -36 87 -41 90 -4 3 -20 37 -35 75 -15 39 -31 72 -35 75 -4 3 -19 36 -34 75 -14 38 -29 72 -34 75 -4 3 -22 43 -41 90 -19 47 -37 87 -40 90 -4 3 -19 37 -34 75 -15 39 -31 72 -35 75 -4 3 -20 37 -35 75 -15 39 -31 72 -35 75 -4 3 -22 44 -40 93 -19 48 -37 87 -40 87 -4 0 -20 35 -36 78 -16 42 -32 79 -36 82 -4 3 -20 37 -35 75 -15 39 -31 72 -35 75 -4 3 -20 37 -35 75 -15 39 -30 72 -34 75 -3 3 -21 43 -40 90 -19 47 -37 87 -41 90 -5 3 -20 37 -34 75 -15 39 -30 72 -34 75 -4 3 -20 37 -35 75 -15 39 -31 72 -35 75 -5 3 -23 43 -41 90 -17 47 -35 87 -39 90 -4 3 -20 37 -35 75 -15 39 -31 72 -35 75 -4 3 -20 39 -36 80 -16 41 -32 77 -36 80 -4 3 -22 41 -39 85 -17 44 -35 82 -39 85 -4 3 -20 39 -36 80 -16 41 -32 77 -36 80 -4 3 -20 37 -35 75 -15 39 -31 72 -35 75 -4 3 -22 43 -39 90 -18 47 -36 87 -41 90 -4 3 -20 37 -35 75 -15 39 -31 72 -35 75 -4 3 -19 36 -34 75 -14 38 -29 72 -34 75 -4 3 -22 43 -41 90 -19 47 -37 87 -40 90 -4 3 -19 37 -34 75 -15 39 -31 72 -35 75 -4 3 -20 37 -35 75 -15 39 -31 72 -35 75 -4 3 -22 44 -40 93 -19 48 -37 87 -40 87 -4 0 -20 35 -36 78 -16 42 -32 79 -36 82 -4 3 -20 37 -35 75 -15 39 -31 71 -35 73 -3 2 -21 42 -40 90 -18 48 -36 89 -40 92 -4 3 -20 37 -35 75 -15 39 -31 72 -35 75 -5 3 -20 37 -34 75 -15 39 -30 72 -34 75 -4 3 -20 37 -35 75 -15 39 -31 72 -35 75 -5 3 -23 43 -41 90 -17 47 -35 87 -39 90 -4 3 -20 37 -35 75 -15 39 -31 72 -35 75 -4 3 -20 39 -36 80 -16 41 -32 77 -36 80 -4 3 -22 41 -39 85 -17 44 -35 82 -39 85 -4 3 -20 39 -35 80 -16 41 -33 77 -37 80 -4 3 -20 37 -35 75 -15 39 -31 72 -35 75 -4 3 -22 43 -39 90 -18 47 -36 87 -41 90 -4 3 -20 37 -35 75 -15 39 -31 72 -35 75 -4 3 -19 36 -34 75 -14 38 -29 72 -34 75 -4 3 -22 43 -41 90 -19 47 -37 87 -40 90 -4 3 -19 37 -34 75 -15 39 -31 72 -35 75 -4 3 -20 37 -35 75 -15 39 -31 72 -35 75 -4 3 -22 44 -40 93 -19 48 -37 87 -40 87 -4 0 -20 35 -36 78 -16 42 -32 79 -36 82 -4 3 -20 37 -35 75 -15 39 -31 71 -35 73 -3 2 -21 42 -40 90 -18 48 -36 89 -40 92 -4 3 -20 37 -35 75 -15 39 -31 72 -35 75 -5 3 -20 37 -34 75 -15 39 -30 72 -34 75 -4 3 -20 37 -35 75 -15 39 -31 72 -35 75 -5 3 -23 43 -41 90 -17 47 -35 87 -39 90 -4 3 -20 37 -35 75 -15 39 -31 72 -35 75 -4 3 -20 39 -36 80 -16 41 -32 77 -36 80 -4 3 -22 41 -39 85 -17 44 -35 82 -39 85 -4 3 -20 39 -36 80 -16 41 -32 77 -36 80 -4 3 -20 37 -35 75 -15 39 -31 72 -35 75 -4 3 -22 43 -39 90 -18 47 -36 87 -41 90 -4 3 -20 37 -35 75 -15 39 -31 72 -35 75 -4 3 -19 36 -34 75 -14 38 -29 72 -34 75 -4 3 -22 43 -41 90 -19 47 -37 87 -40 90 -4 3 -19 37 -34 75 -15 39 -31 72 -35 75 -4 3 -20 37 -35 75 -15 39 -31 72 -35 75 -4 3 -22 44 -40 93 -19 48 -37 87 -40 87 -4 0 -20 35 -36 78 -16 42 -32 79 -36 82 -4 3 -20 37 -35 75 -15 39 -31 71 -35 73 -3 2 -21 42 -40 90 -18 48 -36 89 -40 92 -4 3 -20 37 -35 75 -15 39 -31 72 -35 75 -5 3 -20 37 -34 75 -15 39 -30 72 -34 75 -4 3 -22 43 -41 90 -19 47 -37 87 -41 90 -5 3 -20 37 -34 75 -15 39 -30 72 -34 75 -4 3 -20 37 -35 75 -15 39 -31 72 -35 75 -4 3 -20 39 -36 80 -16 41 -32 77 -36 80 -4 3 -22 41 -39 85 -17 44 -35 82 -39 85 -4 3 -20 39 -36 80 -16 41 -32 77 -36 80 -4 3 -20 37 -35 75 -15 39 -31 72 -35 75 -4 3 -22 44 -40 90 -18 47 -36 87 -40 90 -4 3 -20 37 -35 75 -15 39 -31 72 -35 75 -4 3 -19 36 -34 75 -14 38 -29 72 -34 75 -4 3 -22 43 -41 90 -19 47 -37 87 -41 90 -4 3 -19 36 -34 75 -14 38 -29 72 -34 75 -4 3 -20 37 -35 75 -15 39 -31 72 -35 75 -4 3 -18 33 -30 68 l-23 62 -1689 0 c-1460 0 -1689 -2 -1689 -14z"/>
        </g>
    </g>
</svg>