<svg class="img-fluid" id="outputsvg" xmlns="http://www.w3.org/2000/svg" style="transform: none; transform-origin: 50% 50%; cursor: move;" width="1200" height="2040" viewBox="0 0 12000 20400">
    <g id="l1cYSfj5W6II9h0wDMtj9wj" fill="#212529" style="transform: none;">
        <g>
            <path id="pKthE5Ndb" d="M2290 19661 c0 -6 4192 -9918 4670 -11043 l29 -68 -919 0 -920 0 0 1855 0 1855 -400 0 -400 0 0 -1855 0 -1855 -790 0 -790 0 0 1845 0 1845 -400 0 -400 0 0 -1845 0 -1845 -535 0 -535 0 0 -2125 0 -2125 530 0 530 0 0 -1850 0 -1850 410 0 410 0 0 1850 0 1850 785 0 785 0 0 -1850 0 -1850 400 0 400 0 0 1850 0 1850 3055 0 c1763 0 3055 4 3055 9 0 5 -1260 3212 -2801 7127 -1540 3916 -2899 7369 -3019 7674 l-218 555 -1466 3 c-878 1 -1466 -2 -1466 -7z"/>0
        </g>
    </g>
</svg>