<svg id="outputsvg" xmlns="http://www.w3.org/2000/svg" viewBox="0 0 1196.82 1995.49"><defs><style>.cls-1{fill:#33b44a;}.cls-2{fill:#32b44a;}</style></defs><g id="l4vNWQdawoST2M2CAOok1qD"><path id="ptToC8JnV" class="cls-1" d="M591.2,1986.2c-4.5-6.4-11.5-16.4-15.6-22.2s-12.2-17.5-18-26c-12.6-18.6-19.3-28.3-25.6-37-8.4-11.7-12.3-17.3-19.4-28-3.8-5.8-11.3-16.6-16.6-24-13.6-19-16.1-22.5-27.8-40-5.8-8.5-13.4-19.5-16.9-24.5-7.1-9.8-23-32.7-33.3-48-3.6-5.3-10.3-14.8-14.9-21.2s-12.4-17.7-17.4-25.2-13.4-19.7-18.7-27.1c-11.9-16.6-16.3-22.9-27.5-39.5-4.8-7.1-15.6-22.9-24.1-35-40.2-57.4-49.2-70.3-60.9-87.5-14.1-20.7-20.6-30.1-30.4-44-3.8-5.2-11.1-15.8-16.3-23.5s-13.7-20-18.9-27.2-11.3-16.1-13.7-19.5-11.1-16.2-19.5-28.3-21.6-31.1-29.2-42.3c-20-28.9-23.3-33.7-30.1-43.2-3.4-4.7-9.9-14.1-14.5-21-7.2-10.8-20.2-29.4-22.6-32.5-.4-.5-2.1-3-3.8-5.5a57,57,0,0,0-3.5-5c-.3-.3-4.4-6.1-9-13-15.1-22.5-16.5-24.5-17.3-25.5-.5-.5-5.5-7.7-11.3-16s-11.1-15.8-12-16.9-1.2-1.7-.7-1.5c1.6.8,33.1,19.8,44.1,26.8,6.2,3.9,11.4,7.1,11.6,7.1s37.9,22.6,70.1,42.2c7.7,4.7,21.4,12.9,30.5,18.3s21.7,13,28,17c9.8,6.2,30.3,18.5,40.5,24.5,1.7.9,9.3,5.5,17,10.2,36.8,22.4,71.3,43.2,74.1,44.8,1.7,1,6.2,3.7,10,6.1s18.2,11,31.9,19.2,32,19.3,40.5,24.6,24.7,15,36,21.7c19,11.4,40.1,24.2,55.9,34,8.8,5.4,26.5,16.1,32,19.1,2.4,1.4,8.9,5.3,14.5,8.7,40.3,24.9,60,36.6,61.3,36.6.8,0,17.6-10,66.3-39.5,10.7-6.5,20.9-12.5,22.5-13.5s10-6,18.5-11.2c29.3-17.9,38.6-23.5,58.5-35.5,11-6.6,27-16.2,35.5-21.4s16.4-10.1,17.5-10.7c5.4-3.2,44.4-26.7,54.5-32.9,12-7.2,25.3-15.3,30.5-18.3,7.4-4.3,37.3-22.4,39.5-24,2.4-1.7,10-6.3,16.5-10s59.4-35.6,66-39.8c3.9-2.5,8.4-5.3,10-6.2,4.9-2.8,29.5-17.3,36.9-21.8,3.7-2.3,7.2-4.2,7.7-4.2a.92.92,0,0,0,.9-1c0-.5.7-1,1.5-1s1.5-.4,1.5-.8,1.2-1.5,2.7-2.3,8.6-4.9,15.8-9.3,20.4-12.3,29.5-17.6c26.5-15.6,27-15.9,29.2-18a8.58,8.58,0,0,1,2.9-2,40.93,40.93,0,0,0,7-3.9c3.5-2.1,11-6.6,16.7-9.9l10.3-6.1-8.8,12.7c-4.8,7-10.5,15.2-12.7,18.4s-4.8,6.6-5.6,7.8-2.2,3.2-3.1,4.4-5.9,8.4-11.1,16.1-15.2,22.1-22.1,32-14.5,20.8-16.9,24.3l-5.3,7.5c-.6.7-4.2,5.9-8.1,11.7-7.7,11.6-10.4,15.4-23.9,34.5-5,7.2-13,18.6-17.8,25.5s-11.7,17-15.6,22.5c-7.9,11.3-15,21.7-28.9,42-5.3,7.7-14.1,20.4-19.7,28.2s-12.9,18.5-16.5,23.7-10.2,14.9-14.7,21.3-8.8,12.6-9.5,13.7-2.7,3.7-4.3,6-6.9,9.7-11.5,16.6-13.8,20.2-20.4,29.5-14.2,20.4-17,24.5-5.3,7.7-5.6,8a57,57,0,0,0-3.5,5c-3.3,4.9-21,30.5-26.6,38.5-3.8,5.3-7.5,10.6-21.2,30.5-4.7,6.9-10.8,15.7-13.6,19.5s-7.9,11.3-11.5,16.5c-19.2,28.1-28.5,41.6-39.5,57.2-4.2,5.8-14.1,20.2-22.1,31.8s-15.2,22-16,23-5,7-9.2,13.2-17.5,25.3-29.4,42.3-22.1,31.9-22.6,33a14.5,14.5,0,0,1-1.7,2.5,16.59,16.59,0,0,0-2.3,3c-1.5,2.2-8.6,12.6-24.7,35.7-3,4.3-11.1,15.9-18,25.8s-14.4,20.7-16.7,24-7.7,11.1-12,17.3-8,11.4-8.4,11.7S595.7,1992.7,591.2,1986.2Z" transform="translate(-1.28 -2.02)"/><path id="p2vPjnms2" class="cls-2" d="M592.5,1376.3c-6.4-4.2-24.2-15.1-29-17.7-5.6-3.1-45.7-27.4-50.5-30.6-3-2-10-6.3-15.5-9.5s-15.2-9-21.5-12.8-15.3-9.2-20-12-12.5-7.6-17.5-10.7c-7.1-4.6-48.7-29.6-61.4-37-1.5-.8-6.7-4-11.6-7.1-12.9-8.2-62.7-37.9-63.3-37.9a6.87,6.87,0,0,1-2.2-1.5c-1.7-1.5-73-44.5-73.9-44.5a10,10,0,0,1-2.5-1.8c-1.2-1-11.1-7.2-22.1-13.7s-23.8-14.1-28.5-17c-22.4-13.8-55.4-33.7-74-44.7-4.7-2.8-15-9.2-23-14.1s-17.2-10.6-20.5-12.5-9.8-5.8-14.5-8.7-15.1-9.1-23.2-13.9c-15.7-9.3-17.6-10.9-16.1-12.8a55,55,0,0,0,3.6-5.8c1.3-2.5,5.1-8.8,8.3-14,10.6-17.4,30.4-51.2,31.7-54.1.4-.8,3.7-6.5,7.4-12.6s12.2-20.4,18.7-31.5,21-35.6,32.1-54.3,21.9-37.1,24-41,6.3-11,9.3-16c11.6-19,20.3-33.7,31.7-53.5,6.5-11.3,17-29,23.3-39.5S207,668,211.5,660s11.3-19.7,15.2-26c8.2-13.5,25.7-43.1,30-51,1.6-3,8.3-14.3,14.8-25s15.2-25.3,19.3-32.5c10.6-18.4,19.8-34,33.6-57,6.5-11,13.3-22.5,14.9-25.5,3.8-7,9.9-17.3,22.4-38,9.1-14.9,20.9-35.2,27.5-47,1.4-2.5,9.2-15.8,17.5-29.5s17.3-29,20-34,13.2-22.7,23.2-39.4,19.4-32.7,20.8-35.5A73.44,73.44,0,0,1,475,212c.9-1.4,2.9-4.5,4.2-7s6.3-10.6,10.8-18c10-16.2,10.9-17.7,18.4-31.1,3.3-5.7,15-25.7,26.1-44.4S556.1,75,557.7,72s5.2-9.1,7.8-13.5,5.6-9.3,6.5-11,5-8.4,9.1-15S591,16,594.2,10.6c4.7-8.2,5.9-9.6,6.5-8s11.6,20.2,33.4,56.7c3.3,5.4,5.9,10,5.9,10.3a97.47,97.47,0,0,0,5,8.5c2.7,4.4,5,8.2,5,8.4a70.93,70.93,0,0,0,3.9,6.7c4.5,7.4,14,23.5,15.6,26.3,1.2,2.2,11.8,20.3,22.9,39,3.9,6.6,7.3,12.4,7.6,13s1.2,2.1,2.1,3.5c2.6,4,20.9,35.1,20.9,35.5,0,.2,4.1,7.3,9.1,15.7,20.7,34.6,25.3,42.3,38.4,64.8,7.6,12.9,17.4,29.6,21.8,37s8.8,14.9,9.8,16.7,2.9,4.9,4.2,7,3.5,5.8,4.9,8.3c5.4,9.7,7.3,12.8,13.1,22.5,3.3,5.5,6.8,11.4,7.7,13s4.9,8.3,8.9,14.9,7.1,12,7.1,12.1c0,.4,15.3,26.5,20.5,35,5.9,9.7,23.5,39.6,29.9,50.7,2.9,5.1,11.7,20.1,19.6,33.3s15.2,25.6,16.3,27.5c5.7,10.2,14.3,24.9,20.7,35.5,4,6.6,8.1,13.4,9,15s7.7,13.1,14.9,25.4S992,667.4,992,667.6s2.9,4.9,6.4,10.6c7.7,12.6,25.6,42.8,25.6,43.3,0,.2,7.6,13.1,16.8,28.7,18,30.2,29.4,49.5,33.4,56.8,1.4,2.5,6.9,11.6,12.2,20.4s9.6,16,9.6,16.2,1.5,2.7,3.3,5.6,5.1,8.5,7.2,12.3,5.3,9.4,7.1,12.3a40.61,40.61,0,0,1,3.4,5.8,50.13,50.13,0,0,0,3.5,6c1.9,3,3.5,5.6,3.5,5.8s3,5.2,6.6,11.2,11.6,19.5,17.6,29.9,17.1,29,24.4,41.3,13.4,22.5,13.4,22.6,2.7,4.8,6,10.2,6,10.3,6,10.9c0,.9-8.9,7.1-14.5,10.1-4,2.2-9.4,5.3-16.1,9.4-3.8,2.4-13,7.9-20.4,12.3s-17.8,10.6-23,13.9c-11.6,7.3-6.9,4.5-41.2,25.1-15.8,9.5-36.3,21.8-45.5,27.5s-27.1,16.4-39.8,24-35.7,21.5-51.1,30.9-28.8,17.3-29.5,17.6-5.7,3.4-10.9,6.7c-7.2,4.6-53.3,32.5-65.2,39.5-.9.6-5.4,3.3-10,6.1-12.3,7.6-45,27.4-45.3,27.4-.1,0-6,3.5-13.1,7.9-40.8,24.9-50.3,30.6-63.9,38.7-8.2,4.8-20.4,12.2-27,16.4s-14.1,8.8-16.5,10.2c-7.8,4.3-56.3,33.7-63,38C599.6,1380.8,599.3,1380.7,592.5,1376.3Z" transform="translate(-1.28 -2.02)"/></g></svg>