<svg class="img-fluid" id="outputsvg" xmlns="http://www.w3.org/2000/svg" style="transform: none; transform-origin: 50% 50%; cursor: move;" width="1198" height="1999" viewBox="0 0 11980 19990">
    <g id="l4vNWQdawoST2M2CAOok1qD" fill="rgb(33,37,41)" style="transform: none;">
        <g style="transform: none;">
            <path id="ptToC8JnV" d="M5912 19862 c-45 -64 -115 -164 -156 -222 -41 -58 -122 -175 -180 -260 -126 -186 -193 -283 -256 -370 -84 -117 -123 -173 -194 -280 -38 -58 -113 -166 -166 -240 -136 -190 -161 -225 -278 -400 -58 -85 -134 -195 -169 -245 -71 -98 -230 -327 -333 -480 -36 -53 -103 -148 -149 -212 -46 -64 -124 -177 -174 -252 -50 -75 -134 -197 -187 -271 -119 -166 -163 -229 -275 -395 -48 -71 -156 -229 -241 -350 -402 -574 -492 -703 -609 -875 -141 -207 -206 -301 -304 -440 -38 -52 -111 -158 -163 -235 -52 -77 -137 -200 -189 -272 -52 -73 -113 -161 -137 -195 -23 -35 -111 -162 -195 -283 -84 -121 -216 -311 -292 -423 -200 -289 -233 -337 -301 -432 -34 -47 -99 -141 -145 -210 -72 -108 -202 -294 -226 -325 -4 -5 -21 -30 -38 -55 -16 -25 -32 -47 -35 -50 -3 -3 -44 -61 -90 -130 -151 -225 -165 -245 -173 -255 -5 -5 -55 -77 -113 -160 -57 -82 -111 -158 -120 -169 -9 -10 -12 -17 -7 -15 16 8 331 198 441 268 62 39 114 71 116 71 3 0 379 226 701 422 77 47 214 129 305 183 91 54 217 130 280 170 98 62 303 185 405 245 17 9 93 55 170 102 368 224 713 432 741 448 17 10 62 37 100 61 38 23 182 110 319 192 138 83 320 193 405 246 85 52 247 150 360 217 190 114 401 242 559 340 88 54 265 161 320 191 24 14 89 53 145 87 403 249 600 366 613 366 8 0 176 -100 663 -395 107 -65 209 -125 225 -135 17 -9 100 -60 185 -112 293 -179 386 -235 585 -355 110 -66 270 -162 355 -214 85 -53 164 -101 175 -107 54 -32 444 -267 545 -329 120 -72 253 -153 305 -183 74 -43 373 -224 395 -240 24 -17 100 -63 165 -100 66 -37 594 -356 660 -398 39 -25 84 -53 100 -62 49 -28 295 -173 369 -218 37 -23 72 -42 77 -42 5 0 9 -4 9 -10 0 -5 7 -10 15 -10 8 0 15 -4 15 -8 0 -5 12 -15 27 -23 15 -8 86 -49 158 -93 71 -43 204 -123 295 -176 265 -156 270 -159 292 -180 12 -11 25 -20 29 -20 4 0 36 -17 70 -39 35 -21 110 -66 167 -99 l103 -61 -88 127 c-48 70 -105 152 -127 184 -23 31 -48 66 -56 78 -8 12 -22 32 -31 44 -9 11 -59 84 -111 161 -52 77 -152 221 -221 320 -69 99 -145 208 -169 243 -24 34 -48 68 -53 75 -6 7 -42 59 -81 117 -77 116 -104 154 -239 345 -50 72 -130 186 -178 255 -47 69 -117 170 -156 225 -79 113 -150 217 -289 420 -53 77 -141 204 -197 282 -55 78 -129 185 -165 237 -36 53 -102 149 -147 213 -45 65 -88 126 -95 137 -7 10 -27 37 -43 60 -17 22 -69 97 -115 166 -46 69 -138 202 -204 295 -66 94 -142 204 -170 245 -28 41 -53 77 -56 80 -3 3 -19 25 -35 50 -33 49 -210 305 -266 385 -38 53 -75 106 -212 305 -47 69 -108 157 -136 195 -27 39 -79 113 -115 165 -192 281 -285 416 -395 572 -42 58 -141 202 -221 318 -80 116 -152 220 -160 230 -8 11 -50 70 -92 132 -43 62 -175 253 -294 423 -119 171 -221 319 -226 330 -6 11 -14 22 -17 25 -4 3 -14 16 -23 30 -15 22 -86 126 -247 357 -30 43 -111 159 -180 258 -68 99 -144 207 -167 240 -24 33 -77 111 -120 173 -42 62 -80 114 -84 117 -4 2 -43 -48 -88 -113z"/>
            <path id="p2vPjnms2" d="M5925 13763 c-64 -42 -242 -151 -290 -177 -56 -31 -457 -274 -505 -306 -30 -20 -100 -63 -155 -95 -55 -32 -152 -90 -215 -128 -63 -38 -153 -92 -200 -120 -47 -27 -125 -76 -175 -107 -71 -46 -487 -296 -614 -370 -15 -8 -67 -40 -116 -71 -129 -82 -627 -379 -633 -379 -3 0 -13 -7 -22 -15 -17 -15 -730 -445 -739 -445 -2 0 -14 -8 -25 -18 -12 -10 -111 -72 -221 -137 -110 -65 -238 -141 -285 -170 -224 -138 -554 -337 -740 -447 -47 -28 -150 -92 -230 -141 -80 -50 -172 -106 -205 -125 -33 -19 -98 -58 -145 -87 -47 -29 -151 -91 -232 -139 -157 -93 -176 -109 -161 -128 6 -7 22 -33 36 -58 13 -25 51 -88 83 -140 106 -174 304 -512 317 -541 4 -8 37 -65 74 -126 38 -62 122 -204 187 -315 66 -112 210 -356 321 -543 111 -187 219 -371 240 -410 21 -38 63 -110 93 -160 116 -190 203 -337 317 -535 65 -113 170 -290 233 -395 63 -104 152 -255 197 -335 45 -80 113 -197 152 -260 82 -135 257 -431 300 -510 16 -30 83 -143 148 -250 65 -107 152 -253 193 -325 106 -184 198 -340 336 -570 65 -110 133 -225 149 -255 38 -70 99 -173 224 -380 91 -149 209 -352 275 -470 14 -25 92 -158 175 -295 82 -138 173 -290 200 -340 28 -49 132 -227 232 -394 100 -167 194 -327 208 -355 14 -28 33 -62 43 -76 9 -14 29 -45 42 -70 14 -25 63 -106 108 -180 100 -162 109 -177 184 -311 33 -57 150 -257 261 -444 111 -187 216 -365 232 -395 17 -30 52 -91 78 -135 26 -44 56 -93 65 -110 10 -16 50 -84 91 -150 40 -66 99 -165 131 -219 47 -82 59 -96 65 -80 7 17 116 202 334 567 33 54 59 100 59 103 0 2 22 41 50 85 27 44 50 82 50 84 0 2 17 32 39 67 45 74 140 235 156 263 12 22 118 203 229 390 39 66 73 124 76 130 3 5 12 21 21 35 26 40 209 351 209 355 0 2 41 73 91 157 207 346 253 423 384 648 76 129 174 296 218 370 43 74 88 149 98 167 10 17 29 49 42 70 13 21 35 58 49 83 54 97 73 128 131 225 33 55 68 114 77 130 10 17 49 83 89 149 39 65 71 120 71 121 0 4 153 265 205 350 59 97 235 396 299 507 29 51 117 201 196 333 78 132 152 256 163 275 57 102 143 249 207 355 40 66 81 134 90 150 10 17 77 131 149 254 72 123 131 225 131 227 0 1 29 49 64 106 77 126 256 428 256 433 0 2 76 131 168 287 180 302 294 495 334 568 14 25 69 116 122 204 53 87 96 160 96 162 0 2 15 27 33 56 19 29 51 85 72 123 21 39 53 94 71 123 19 29 34 55 34 58 0 3 16 30 35 60 19 30 35 56 35 58 0 2 30 52 66 112 36 60 116 195 176 299 61 105 171 290 244 413 74 123 134 225 134 226 0 2 27 48 60 102 33 54 60 103 60 109 0 9 -89 71 -145 101 -40 22 -94 53 -161 94 -38 24 -130 79 -204 123 -74 43 -178 106 -230 139 -116 73 -69 45 -412 251 -158 95 -363 218 -455 275 -93 56 -271 164 -398 240 -126 76 -357 215 -511 309 -155 93 -288 173 -295 176 -8 4 -57 34 -109 67 -72 46 -533 325 -652 395 -9 6 -54 33 -100 61 -123 76 -450 274 -453 274 -1 0 -60 35 -131 79 -408 249 -503 306 -639 387 -82 48 -204 122 -270 164 -66 43 -141 88 -165 102 -78 43 -563 337 -630 380 -24 16 -27 15 -95 -29z"/>
        </g>
    </g>
</svg>